<?xml version="1.0" encoding="utf-8"?>
<!-- Generator: Adobe Illustrator 23.1.0, SVG Export Plug-In . SVG Version: 6.00 Build 0)  -->
<svg version="1.1" id="Layer_1" xmlns="http://www.w3.org/2000/svg" xmlns:xlink="http://www.w3.org/1999/xlink" x="0px" y="0px"
	 viewBox="0 0 360 162.6" style="enable-background:new 0 0 360 162.6;" xml:space="preserve">
<style type="text/css">
	.st0{fill:#B84B16;}
	.st1{fill:#005953;}
	.st2{fill:#B2BB1E;}
	.st3{fill:#C5A901;}
</style>
<g id="XMLID_1_">
	<path id="XMLID_18_" class="st0" d="M148.5,83.2c-1.4-0.2-25.6,13.6-25.6,13.6s39,8.1,95.8,25.1c0,0,11.3-16,19.2-24.8
		C237.8,97.2,205,91,148.5,83.2"/>
	<path id="XMLID_17_" class="st1" d="M103.5,81.6c19.2-3.3,39.1,0.5,39.1,0.5s-31.5,15-61.1,33.6c0,0-24.8-7.4-42.9-9.3
		C38.6,106.4,84.7,84.8,103.5,81.6"/>
	<path id="XMLID_16_" class="st2" d="M171.3,114c0,0,18.4,4.9,43.8,13.5c0,0-16.1,23.8-21.9,35.1c0,0-16.1-9.3-46.5-22.7
		C146.7,139.9,153.2,133,171.3,114"/>
	<path id="XMLID_15_" class="st3" d="M88.5,118.1c0,0,12.2-8.6,29.2-18.1c0,0,19.6,3.9,48.1,12.4L140.3,137c0,0-15-6.3-27.7-10.9
		C99.9,121.6,88.5,118.1,88.5,118.1"/>
	<path id="XMLID_14_" d="M89.1,80.4l-0.8,0.5l-19.8,0.4l-0.5-0.6l3.6-18.5l2.4-12.6l5.2-25.1l-18,37.2l-8.7,18.7l-0.8,0.5l-16.3,0.3
		l-0.7-0.6L34,67l-2-42.4l-2.8,11L25,52.5l-6.7,27.9l-0.7,0.5c-7.7,0-9.9,0.1-17,0.4L0,80.7L6.3,58l7.1-26.3l6-22.9L20,8.2
		c12.9,0,15.9,0,28.3-0.3l0.6,0.6l0.5,16.3l0.4,7.5l1,20.1l13-27.9c1.7-3.4,6.7-14.3,7.4-15.8L72,8.2c12.1,0,15.1,0,28.1-0.3
		l0.5,0.6l-3.9,23.1l-4.5,27.9L89.1,80.4"/>
	<path d="M148.6,69.6c-2.7,4.2-5.4,6.3-8.8,8.2l-0.6,0.2l-0.7,0.1c-8.4-1.2-12.2-1.3-16.1-1.3c-3.8-0.1-9.7-0.1-16,1l-0.6-0.1
		l-0.4-0.2c-5.3-3.8-8.1-9.5-8.1-18.1c0-8.3,3-18.3,8.6-25c7.3-8.6,17-9.8,23.8-9.8c7,0,12.3,1.6,14.7,3
		c10.2,5.4,10.2,17.1,10.2,19.6c0,3.7-0.3,7.3-1.1,10.8C152.2,62.5,150.4,66.9,148.6,69.6 M133.9,44.1c0-4-1.6-6.6-4.8-6.6
		c-4,0-6.1,4.3-6.6,5.3c-2.6,5-4.4,15.3-4.4,19.5c0,1.8,0,7.1,4.9,7.1c5.4,0,8.2-7.2,9.9-15.8C133.8,48.6,133.9,44.6,133.9,44.1z"/>
	<path id="XMLID_11_" d="M152.4,76.1l3.7-13l0.9-0.3c1.7,1.9,6,6.9,14.1,6.9c3.2,0,7.2-1,7.2-4.2c0-2.8-2.5-4-6.4-6l-2.2-1.1
		c-4.7-2.6-10.3-5.7-10.3-14.2c0-4.7,1.8-9.1,5-12.6c3.7-4,10.1-6.9,19.9-6.9c8.4,0,12.8,1.8,18.4,4.2l0.5,0.9
		c-1.8,5.6-2.2,7.2-3.6,13l-1,0.2c-0.8-1-1.7-2.1-2.7-3c-2.4-2-6.2-3.3-9.5-3.3c-5.1,0-6.3,2.4-6.3,3.7c0,2.3,2.7,3.6,5.3,4.9l2.1,1
		c5.9,3.1,12.2,6.6,12.2,16.1c0,6.1-2.9,10-4.6,12c-6.9,7.7-17.2,7.9-21.7,7.9c-11.8,0-17.4-3.2-20.8-5.2L152.4,76.1"/>
	<path d="M261.7,45.9c-1.8,7.2-3.5,14.6-4.9,21.8c-0.8,4.1-1.5,8.4-2.2,12.6l-0.6,0.6L235,81.3l-0.5-0.6l0.8-4.7
		c-4.1,4.1-9.7,6.2-15.5,6.2c-4.8,0-8-1.8-9.7-3.1c-6.8-5.2-7-14-7-17.2c0-12.6,6.1-21.8,10.6-26.2c10-9.8,22.9-9.9,32.5-10h19.6
		l0.6,0.8L261.7,45.9 M243.2,39.1C240,39,235.7,38.9,232,42c-2.9,2.5-7,8.8-7,17.9c0,5.3,2.4,8.4,6.5,8.4c2.3,0,3.8-1,5.4-2.2
		L243.2,39.1z"/>
	<path d="M287.5,60.9c-2.2,10.1-2.5,12.3-3.6,19.5l-0.6,0.5l-22,0.4l-0.4-0.7c3.5-13.1,4.1-15.4,6.9-27.8l1-4.3
		c2.2-9.9,2.5-11.9,3.5-20.1l0.7-0.8c10.4-1.3,12.9-1.7,22.2-3.5l0.6,0.7l-7.1,30.1L287.5,60.9 M296.9,17l-0.8,0.7l-20.3,3l-0.7-0.7
		l3.5-16.5l0.8-0.7L300.1,0l0.6,0.7L296.9,17z"/>
	<path id="XMLID_6_" d="M336.5,64.5c-2.1,7.4-2.3,8.8-3.6,14.8L332,80c-3.8,1.2-7.4,2.3-12.7,2.3c-17.3,0-25.8-10.3-25.8-25.4
		c0-15.4,10.7-32.3,32.7-32.3c9.6,0,13.8,2.7,16.4,4.2l0.2,0.8l-4,13.9l-1,0.1c-2.5-3.1-5.3-4.9-9.2-4.9c-7,0-13.6,6.5-13.6,17.4
		c0,5.8,2.8,11.4,10.5,11.4c5,0,7.9-2.1,9.9-3.6L336.5,64.5"/>
	<path d="M360,31c0,3.7-3,6.7-6.7,6.7c-3.7,0-6.7-3-6.7-6.7c0-3.7,3-6.7,6.7-6.7C357,24.3,360,27.3,360,31 M347.2,31
		c0,3.4,2.6,6.1,6.1,6.1c3.4,0,6-2.7,6-6.2c0-3.4-2.6-6.1-6-6.1C349.8,24.9,347.2,27.5,347.2,31z M350.8,27h3c1.8,0,2.6,0.8,2.6,2.2
		c0,1.3-0.9,1.9-2,2.1l2.4,3.7H356l-2.4-3.7h-2.1V35h-0.7L350.8,27L350.8,27z M351.5,30.7h1.7c1.2,0,2.5-0.1,2.5-1.5
		c0-1.2-1.1-1.6-2-1.6h-2.2L351.5,30.7L351.5,30.7z"/>
</g>
</svg>
