<?xml version="1.0" encoding="utf-8"?>
<!-- Generator: Adobe Illustrator 23.1.0, SVG Export Plug-In . SVG Version: 6.00 Build 0)  -->
<svg version="1.1" id="Layer_1" xmlns="http://www.w3.org/2000/svg" xmlns:xlink="http://www.w3.org/1999/xlink" x="0px" y="0px"
	 viewBox="0 0 350 350" style="enable-background:new 0 0 350 350;" xml:space="preserve">
<style type="text/css">
	.st0{fill:#F25022;}
	.st1{fill:#FEFEFE;}
	.st2{fill:#80BA01;}
	.st3{fill:#02A4EF;}
	.st4{fill:#FFB902;}
</style>
<g>
	<path class="st0" d="M0,0h166.5c0,55.5,0,111,0,166.5c-55.5,0-111,0-166.5,0V0L0,0z"/>
	<path class="st1" d="M350,350c0-55.5,0-111,0-166.5c-55.5,0-111,0-166.5,0c0,55.5,0,111,0,166.5h-17c0-55.5,0-111,0-166.5
		c-55.5,0-111,0-166.5,0v-17c55.5,0,111,0,166.5,0c0-55.5,0-111,0-166.5l0,0h17c0,55.5,0,111,0,166.5c55.5,0,111,0,166.5,0
		c0-55.5,0-111,0-166.5"/>
	<path class="st2" d="M183.5,0H350c0,55.5,0,111,0,166.5c-55.5,0-111,0-166.5,0C183.5,111,183.5,55.5,183.5,0L183.5,0z"/>
	<path class="st3" d="M0,183.5c55.5,0,111,0,166.5,0c0,55.5,0,111,0,166.5H0V183.5L0,183.5z"/>
	<path class="st4" d="M183.5,183.5c55.5,0,111,0,166.5,0c0,55.5,0,111,0,166.5H183.5C183.5,294.5,183.5,239,183.5,183.5L183.5,183.5
		z"/>
</g>
</svg>
