<?xml version="1.0" encoding="utf-8"?>
<!-- Generator: Adobe Illustrator 23.1.0, SVG Export Plug-In . SVG Version: 6.00 Build 0)  -->
<svg version="1.1" id="Layer_1" xmlns="http://www.w3.org/2000/svg" xmlns:xlink="http://www.w3.org/1999/xlink" x="0px" y="0px"
	 viewBox="0 0 635.2 607.7" style="enable-background:new 0 0 635.2 607.7;" xml:space="preserve">
<style type="text/css">
	.st0{fill-rule:evenodd;clip-rule:evenodd;fill:#565473;}
	.st1{fill-rule:evenodd;clip-rule:evenodd;fill:#FFFFFF;}
	.st2{fill-rule:evenodd;clip-rule:evenodd;fill:#7A9172;}
</style>
<g>
	<path class="st0" d="M317.6,607.7c-137.8,0-251.6-107.9-260.4-243.6C24.2,352.1,0,314.7,0,270.5c0-43.9,24-81.2,56.7-93.4V72.8
		l43.6,33.1C151,41.5,229.6,0,317.6,0s166.6,41.5,217.3,105.9l43.6-33.1v104.4c32.8,12.2,56.7,49.5,56.7,93.4
		c0,44.1-24.2,81.6-57.3,93.6C569.2,499.7,455.4,607.7,317.6,607.7L317.6,607.7z"/>
	<path class="st1" d="M317.6,86.7c-61.9,0-117.5,20.4-162.2,56.7l-12-9.4c41.3-50.5,104.1-82.7,174.2-82.7
		c70,0,132.8,32.3,174.2,82.7l-12,9.4C435.1,107.1,379.5,86.7,317.6,86.7L317.6,86.7z"/>
	<path class="st1" d="M317.6,552.5c-102.5,0-187.8-75.7-202.9-174.1V165.7l53,41.5c37.5-40.1,90.9-65.3,149.9-65.3
		c59.1,0,112.4,25.2,149.9,65.3l53-41.5v212.7C505.5,476.7,420.1,552.5,317.6,552.5L317.6,552.5z M317.6,536.4
		c-21.9,0-43.7-6.8-59.2-16.1c-9.8-5.9-12.6-11.5-12.3-14.4c0.4-3.8,9.3-4.2,15.3-3c33,7,79.6,7,112.6,0c6-1.3,14.9-0.9,15.3,3
		c0.3,2.9-2.5,8.6-12.3,14.4C361.3,529.5,339.5,536.4,317.6,536.4L317.6,536.4z M369.2,458.4c-10.6,14.6-32.1,23.2-53.2,23.4
		c-21.8,0.3-43.1-8.3-51.5-24.8c-2.6-5-0.5-3.4,4.6-3.4c15.9,1.1,31.6,2.3,48.1,2.3c16.5,0,32.9-1.6,48.1-2.3
		C371.8,453.7,373.9,452,369.2,458.4L369.2,458.4z"/>
	<path class="st2" d="M325.5,420h108.4l35-60.7H360.5L325.5,420L325.5,420z M309.8,420H201.4l-35-60.7h108.4L309.8,420z"/>
</g>
</svg>
