<?xml version="1.0" encoding="utf-8"?>
<!-- Generator: Adobe Illustrator 23.1.0, SVG Export Plug-In . SVG Version: 6.00 Build 0)  -->
<svg version="1.1" id="Layer_1" xmlns="http://www.w3.org/2000/svg" xmlns:xlink="http://www.w3.org/1999/xlink" x="0px" y="0px"
	 viewBox="0 0 1000 1000" style="enable-background:new 0 0 1000 1000;" xml:space="preserve">
<style type="text/css">
	.st0{fill:#3FA9F5;}
	.st1{fill:#CFD6D1;}
	.st2{fill:#D8DFD9;}
	.st3{fill:#CFE0D2;}
	.st4{fill:#798579;}
	.st5{fill:#BDC3BF;}
</style>
<circle class="st0" cx="498.5" cy="498.5" r="498.5"/>
<g>
	<path class="st1" d="M773.5,623.7c0,66.3,0,132.7,0,199c0,6.8,0,6.9-7.1,6.8c-2.3,0-4.7,0-7-0.1c0-44.5,0.1-88.9-0.1-133.4
		c0-11-3-21.1-9.7-30.2c-15.2-20.7-47.1-23.4-65.5-5.6c-10,9.7-14.6,21.7-14.6,35.3c-0.1,44.6-0.1,89.3-0.1,133.9c-6,0-12,0-18,0
		c0-44.3,0-88.5,0-132.8c0-11.6-2.9-22.3-10.2-31.4c-13.6-16.7-33.2-21.3-51.8-13.4c-18.5,7.8-27.7,23.3-27.8,43.3
		c-0.3,44.8-0.1,89.5-0.1,134.3c-6,0-12,0-18,0c0-44.6-0.1-89.2,0-133.8c0-27.7-21-48.1-46.9-47.2c-22.6,0.8-42,20.4-42.1,42.3
		c-0.2,46.3-0.1,92.6-0.1,138.8c-6.3,0-12.6,0-19,0c0-45.1-0.2-90.3,0.1-135.4c0.2-31.4-31.4-54.5-61.3-42.5
		c-15.6,6.3-28,23.4-27.9,40.5c0.4,45.8,0.1,91.6,0.1,137.4c-6.3,0-12.6,0-19,0c0-45.8,0-91.6,0-137.4c0-9.9-3.5-18.8-9.4-26.2
		c-9.4-11.8-21.8-17.7-37.4-17.4c-21.6,0.4-42.2,20.6-42.2,42.2c0,46.3,0,92.6,0,138.9c-3.8,0-7.6-0.1-11.5,0
		c-2.5,0.1-3.8-0.7-3.6-3.4c0.1-1.3,0-2.7,0-4c0-66.2,0-132.3,0-198.5c-0.9-5.2,1.5-6.2,6.4-6.2c179.1,0.1,358.1,0.1,537.2,0
		C772,617.4,774.3,618.5,773.5,623.7z"/>
	<path class="st2" d="M773.5,623.7c0.9-5.2-1.5-6.2-6.4-6.2c-179.1,0.1-358.1,0.1-537.2,0c-4.9,0-7.3,1-6.4,6.2c-7,0-14-0.2-21-0.1
		c-3.1,0.1-4-1.1-4-4.1c0.1-9.5,0.3-19,0-28.5c-0.2-4.4,1.1-5.6,5.6-5.6c43.1,0.2,86.3,0.1,129.4,0.1c10.7,0,21.3,0,32,0
		c1.4,0,2.7,0,4.1,0c2.4-0.1,4.9-0.2,7.3-0.3c2.4,0,4.8,0,7.2,0.1c2.8,0.1,5.6,0.1,8.5,0.2c2.1-0.1,4.2-0.1,6.2-0.2
		c5.5,0,11,0,16.4,0.1c4.1,0,8.2,0.1,12.3,0.1c1.4,0,2.8-0.1,4.2-0.1c10.2,0,20.3,0,30.5,0c3.8,0,7.7,0,11.5,0
		c17.1,0,34.3,0,51.4-0.1c3.2,0,6.4,0,9.6,0c10.4,0,20.9-0.1,31.3-0.1c1.4,0.1,2.9,0.2,4.3,0.2c3.8,0,7.6-0.1,11.4-0.1
		c5.5,0,11,0,16.4,0c2.1,0.1,4.2,0.1,6.2,0.2c2.8-0.1,5.6-0.2,8.5-0.2c2.4,0,4.9,0,7.3,0c2.4,0.1,4.8,0.1,7.2,0.2c1.4,0,2.7,0,4.1,0
		c53.8,0,107.6,0,161.4-0.1c4.4,0,5.7,1.2,5.6,5.6c-0.3,9.5-0.2,19,0,28.5c0,3-0.9,4.1-4,4.1C787.5,623.4,780.5,623.6,773.5,623.7z"
		/>
	<path class="st3" d="M375.5,441.6c2.3-17.3,8.2-33.3,17.4-48.2c16.6-26.7,40.2-44.1,70-53.5c0.8-0.2,1.6-0.2,2.5-0.3
		c2.5,0.8,5.1,1.1,7.8,1.1c17-0.1,34.1,0,51.1,0c2.2,0,4.3,0.2,6.2-1.1c10,1.8,19.3,5.7,27.9,11c1,5.5,3.3,10.6,4.6,16
		c4.9,18.9,5.8,37.7,1.5,56.7c-1.4,6.1-2.8,12.2-4.2,18.3c-58.1,0-116.1,0-174.2,0C382.7,441.6,379.1,442.7,375.5,441.6z"/>
	<path class="st4" d="M646.4,829.4c-21,0.1-41.9,0.2-62.9,0.3c-5.7,0-11.3-0.2-17-0.3c0-41.7,0-83.3,0.1-125c0-6,0.8-11.9,2.9-17.6
		c7.6-21.3,29.8-32.5,50.1-25.1c15.9,5.8,26.8,22.3,26.9,40.8C646.4,744.8,646.4,787.1,646.4,829.4z"/>
	<path class="st4" d="M754.4,829.4c-21,0.1-41.9,0.2-62.9,0.3c-5.7,0-11.3-0.2-17-0.3c0-41.8,0-83.6,0.1-125.4
		c0-10.5,2.5-20.3,9.1-28.9c14.2-18.8,40.7-20.9,57.4-4.4c9.3,9.2,13.2,20.6,13.2,33.4C754.4,745.8,754.4,787.6,754.4,829.4z"/>
	<path class="st4" d="M538.5,829.5c-26.6,0.3-53.3,0.5-79.9-0.1c0-41.3,0.1-82.5,0-123.8c0-5.4,0.7-10.6,2-15.8
		c6.6-25.4,34.7-38.1,56.6-25.4c14.3,8.3,21.1,21.4,21.2,37.7C538.6,744.6,538.5,787.1,538.5,829.5z"/>
	<path class="st4" d="M322.6,829.5c-26.4,0-52.8,0.1-79.1,0.1c0-42.1,0-84.2,0-126.3c0-4,0.3-7.9,1.1-11.9
		c5.2-25.7,34.1-39.8,56.4-27.1c14.3,8.1,21.5,21,21.6,37.4C322.7,744.3,322.6,786.9,322.6,829.5z"/>
	<path class="st4" d="M430.6,829.5c-26.4,0-52.8,0.1-79.1,0.1c0-42.1,0-84.3,0-126.4c0-4,0.2-8,1.1-11.9c6.4-27.2,36.6-41.2,60-24.7
		c12.2,8.5,17.9,20.8,18,35.5C430.6,744.6,430.5,787,430.6,829.5z"/>
	<path class="st1" d="M612.9,585.3c-2.8,0.1-5.6,0.2-8.5,0.2c1.2-1.8,1-3.8,1-5.8c0-21.8,0.1-43.6-0.1-65.3c0-6.3-0.8-12.6-3.2-18.5
		c-1.4-3.4-3.3-7.1-7.3-8.2c-4.1-1.1-6.3,1.9-8.4,4.8c-2,4-3.4,8.2-4.1,12.7c-1.4,8.4-0.7,16.9-0.8,25.4
		c-0.1,18.3,0.1,36.5,0.2,54.8c-3.8,0-7.6,0.1-11.4,0.1c0-24.3,0.2-48.5,0-72.8c-0.1-8.3-2.5-16-9.1-21.8
		c-6.4-5.6-15.9-4.2-18.8,2.7c-5.6,4.3-7.7,10.6-7.8,17.1c-0.3,24.9,0,49.8,0,74.7c-3.2,0-6.4,0-9.6,0c0.1-23.3,0.7-46.6,0.1-69.9
		c-0.4-13.5-13.3-24.2-26.2-23.8c-14.8,0.5-25.5,11.6-25.6,26.3c0,8.8,0,17.6,0,26.5c0.1,13.6,0.2,27.3,0.3,40.9
		c-3.8,0-7.7,0-11.5,0c0.1-0.5,0.3-1,0.3-1.5c0-24.3,0.1-48.6,0-72.8c0-6.8-2.3-13-7.9-17.5c-2.4-5.2-8.4-7.6-13.6-5.1
		c-8.9,4.2-13.1,11.9-13.2,21.2c-0.4,25.3-0.1,50.6-0.1,75.9c-4.1,0-8.2-0.1-12.3-0.1c0.7-26,0.5-51.9,0-77.9
		c-0.1-5.2-1.7-10.5-4.7-15.1c-3.9-5.5-8.4-6.5-11.7-2.3c-3.7,4.8-6.3,10.3-6.3,16.5c-0.1,26.3,0,52.6,0,78.9
		c-2.8-0.1-5.6-0.1-8.5-0.2c0.1-25.8,0.3-51.6,0.1-77.4c0-4.5-0.5-9.3-2.6-13.6c-0.3-3-1.1-6.1-4.3-6.5c-3.3-0.4-4.1,3-5,5.4
		c-1.5,4.3-2.7,8.9-2.7,13.5c0,26.2,0,52.5,0,78.7c-1.4,0-2.7,0-4.1,0c0-32.7,0.1-65.3,0.1-98c0-3.7,0-7.3,0.1-11
		c88.6,0,177.1,0,265.7,0c0,33.8,0,67.7,0.1,101.5c0,2.5,0.1,5,0.1,7.5c-1.4,0-2.7,0-4.1,0c0-26.8,0-53.6,0-80.5
		c0-5.2-1.7-10.1-3.9-14.8c-0.6-1.2-1.3-3-3.3-2.4c-1.7,0.5-3.6,1.2-3.8,3.5c-0.1,1,0,2,0,3c-2.8,2.1-2.6,5.4-2.8,8.2
		C611.8,530.1,612.7,557.7,612.9,585.3z"/>
	<path class="st2" d="M631.3,476.6c-88.6,0-177.1,0-265.7,0c-7.4-2-9.1-4.2-9.1-11.8c0-4.3,0-8.6,0-12.9c0-6.1,3.4-9.8,9.5-10.2
		c3.1-0.2,6.3-0.1,9.4-0.1c3.6,1.1,7.2,0,10.8,0c58.1,0,116.1,0,174.2,0c20.3,0,40.7,0,61,0c3.2,0,6.3-0.1,9.5,0.1
		c5.9,0.4,9.3,4.1,9.4,10c0.1,4.8,0,9.7,0,14.5C640.4,472.4,637.6,475.5,631.3,476.6z"/>
	<path class="st1" d="M621.5,441.6c-20.3,0-40.7,0-61,0c1.4-6.1,2.9-12.2,4.2-18.3c4.2-19,3.3-37.9-1.5-56.7
		c-1.4-5.4-3.6-10.5-4.6-16c12.8,6,23.5,15.1,32.8,25.6c14.3,16.2,24.1,34.9,28.6,56.2C620.5,435.4,621,438.5,621.5,441.6z"/>
	<path class="st5" d="M430.6,829.5c0-42.5,0.1-85-0.1-127.4c-0.1-14.7-5.8-27-18-35.5c-23.4-16.4-53.5-2.5-60,24.7
		c-0.9,3.9-1.1,7.9-1.1,11.9c0,42.1,0,84.3,0,126.4c-1.6,0-3.3-0.1-4.9-0.1c0-45.8,0.3-91.6-0.1-137.4c-0.1-17,12.2-34.2,27.9-40.5
		c29.9-12,61.5,11.1,61.3,42.5c-0.2,45.1-0.1,90.3-0.1,135.4C433.9,829.5,432.2,829.5,430.6,829.5z"/>
	<path class="st5" d="M754.4,829.4c0-41.8,0-83.6-0.1-125.4c0-12.8-3.9-24.2-13.2-33.4c-16.7-16.4-43.2-14.3-57.4,4.4
		c-6.5,8.6-9.1,18.4-9.1,28.9c-0.1,41.8-0.1,83.6-0.1,125.4c-1.7,0-3.4,0-5,0c0-44.6-0.1-89.3,0.1-133.9c0-13.6,4.6-25.6,14.6-35.3
		c18.4-17.8,50.4-15.1,65.5,5.6c6.6,9.1,9.7,19.2,9.7,30.2c0.1,44.5,0.1,88.9,0.1,133.4C757.7,829.5,756.1,829.4,754.4,829.4z"/>
	<path class="st5" d="M322.6,829.5c0-42.6,0.1-85.2-0.1-127.8c-0.1-16.4-7.2-29.3-21.6-37.4c-22.4-12.7-51.2,1.4-56.4,27.1
		c-0.8,3.9-1.1,7.9-1.1,11.9c0,42.1,0,84.2,0,126.3c-1.6,0-3.3,0-4.9-0.1c0-46.3,0-92.6,0-138.9c0-21.5,20.6-41.8,42.2-42.2
		c15.5-0.3,28,5.7,37.4,17.4c5.9,7.4,9.4,16.3,9.4,26.2c0,45.8,0,91.6,0,137.4C325.9,829.5,324.2,829.5,322.6,829.5z"/>
	<path class="st5" d="M646.4,829.4c0-42.3,0-84.6,0-127c0-18.5-11-35-26.9-40.8c-20.2-7.4-42.5,3.8-50.1,25.1
		c-2,5.7-2.9,11.6-2.9,17.6c0,41.7,0,83.3-0.1,125c-1.7,0-3.4,0-5,0c0-44.8-0.2-89.5,0.1-134.3c0.1-20,9.3-35.5,27.8-43.3
		c18.6-7.9,38.2-3.3,51.8,13.4c7.4,9,10.2,19.8,10.2,31.4c-0.1,44.3,0,88.5,0,132.8C649.8,829.5,648.1,829.5,646.4,829.4z"/>
	<path class="st5" d="M538.5,829.5c0-42.4,0.1-84.9-0.1-127.3c-0.1-16.3-6.9-29.4-21.2-37.7c-21.9-12.8-50-0.1-56.6,25.4
		c-1.3,5.1-2,10.4-2,15.8c0,41.3,0,82.5,0,123.8c-1.4,0-2.7,0.1-4.1,0.1c0-46.3-0.1-92.6,0.1-138.8c0.1-21.8,19.4-41.4,42.1-42.3
		c25.9-0.9,46.9,19.5,46.9,47.2c-0.1,44.6,0,89.2,0,133.8C541.8,829.5,540.2,829.5,538.5,829.5z"/>
	<path class="st4" d="M479.7,255.5c-0.9-3.8,0.1-6.6,4.3-7.6c3.8-0.9,4.8-3.7,4.7-7.2c-0.1-2.3-0.5-4.8,2.4-5.9
		c0.3-0.1,0.8-0.5,0.8-0.5c-3-4.9,2-8.8,1.6-13.3c-0.1-1.3,0-3.2-0.7-3.8c-4.9-3.8-2.1-8.1-1.3-12.4c0.7-3.8-0.2-8.3,1.1-11.3
		c2.8-6.1-0.8-13.2,3.8-18.8c1.3-1.5-0.4-2.4-1.7-2.6c-2.2-0.4-2-2-1.5-3.4c0.6-1.9,2.2-1.3,3.3-0.8c3.8,1.6,7.1,3.8,7.9,8.3
		c0.2,1,0.4,2.7,0,2.9c-5.3,2.6-1.9,6.6-1.4,9.7c1.3,7.9,3.1,15.6,4.9,23.4c0.7,3,0,4.7-3,5.7c-3,0.9-3.9,2.7-1.7,5.5
		c2.1,2.8,1.8,6.8,2.9,9.6c1.8,4.5,1.3,9.5,4.1,13.5c0.6,0.8,1.9,1.4,3,1.6c4.2,1.1,5.2,3.8,4.3,7.6
		C504.7,256,492.2,255.9,479.7,255.5z"/>
	<path class="st1" d="M472.7,280.7c-0.1-2.4-0.1-4.7-0.2-7.1c17.3,0,34.6,0,52,0c-0.1,1.7-0.1,3.4-0.2,5.1c-1.7-0.3-4.2-2-3.8,1.9
		c-2,2.3-2,5.1-2,7.9c0,13.7,0,27.4,0,41.1c-1.3,0-2.7,0-4,0c0-12.8,0-25.6-0.1-38.4c0-3,0.3-6.2-2.6-8.3c-0.4-1,0.2-2.7-1.4-2.8
		c-1.5-0.1-1.7,1.2-1.9,2.4c-0.4,2.1-1,4.2-1,6.3c-0.1,13.6,0,27.2,0,40.8c-1,0-2,0-3,0c0-13.3,0-26.6,0.1-40c0-1.7-0.3-3.3-0.8-4.9
		c-0.9-2.7-2.3-5.1-5.4-5c-3,0-3.9,2.7-4.8,5.1c-0.7,1.9-1.1,3.8-1.1,5.8c0.1,13,0.1,26,0.1,39c-1,0-2,0-3.1,0
		c0-13.9,0-27.9,0.1-41.8c0-1.9-0.2-3.6-0.9-5.3c-0.4-1.1-0.6-2.5-2.1-2.3c-1.6,0.2-0.9,1.9-1.4,2.8c-2.9,2.1-2.6,5.3-2.6,8.3
		c-0.1,12.8,0,25.6,0,38.4c-1.3,0-2.7,0-4,0c-0.5-16.4,1.1-32.8-1-49.2C475.6,274.3,474.4,281.5,472.7,280.7z"/>
	<path class="st2" d="M524.5,273.7c-17.3,0-34.6,0-52,0c-5.3-0.2-8.2-4.8-5.8-9.6c1.1-2.2,3.2-1.1,4.8-1.4c18,0,36,0,54,0
		c5.5-1,4.8,2.7,5.1,6.2C531.1,274.2,527.8,273.8,524.5,273.7z"/>
	<path class="st2" d="M504.5,329.6c1,0,2,0,3,0c1.4,0,2.7,0,4.1,0c1,0,1.9,0,2.9,0c1.3,0,2.7,0,4,0c1.3,0,2.7,0,4,0
		c0.6,0,1.2,0,1.8,0c4.9-0.9,7,1,6.2,6c-0.2,1.3,0,2.6,0.1,3.9c-1.9,1.3-4.1,1.1-6.2,1.1c-17,0-34.1,0-51.1,0
		c-2.7,0-5.3-0.3-7.8-1.1c0.8-1.3,1.3-2.7,1-4.2c-0.8-5,1.6-6.5,6.1-5.7c0.6,0,1.3,0,1.9,0c1.3,0,2.7,0,4,0c1.3,0,2.7,0,4,0
		c1,0,1.9,0,2.9,0c1.4,0,2.7,0,4.1,0c1,0,2,0,3.1,0C496.5,329.6,500.5,329.6,504.5,329.6z"/>
	<path class="st3" d="M525.5,262.7c-18,0-36,0-54,0c0.8-4.6,5.5-4.7,8.2-7.2c12.5,0.4,25,0.5,37.6,0
		C519.9,258,524.7,258.1,525.5,262.7z"/>
	<path class="st5" d="M524.4,329.7c-0.6,0-1.2,0-1.8,0c0-13-0.1-25.9-0.1-38.9c0-3.5-0.6-6.9-2-10.2c-0.4-3.9,2-2.2,3.8-1.9
		C524.3,295.7,524.4,312.7,524.4,329.7z"/>
	<path class="st5" d="M474.5,329.7c-0.6,0-1.3,0-1.9,0c0-16.3,0.1-32.6,0.1-48.9c1.6,0.7,2.9-6.5,4.8-0.3c-3.1,2.7-2.9,6.5-2.9,10
		C474.4,303.6,474.5,316.6,474.5,329.7z"/>
	<path class="st4" d="M473.8,585.4c-0.1-13.6-0.3-27.3-0.3-40.9c-0.1-8.8,0-17.6,0-26.5c0-14.8,10.8-25.8,25.6-26.3
		c12.9-0.4,25.8,10.3,26.2,23.8c0.6,23.3,0,46.6-0.1,69.9C508,585.4,490.9,585.4,473.8,585.4z"/>
	<path class="st4" d="M534.8,585.4c-0.1-24.9-0.3-49.8,0-74.7c0.1-6.5,2.2-12.8,7.8-17.1c9.9-3.1,15.2-0.8,20.3,8.6
		c2.2,4.2,3.4,8.8,3.4,13.4c0.2,23.2,0,46.5-0.1,69.7C555.7,585.3,545.2,585.4,534.8,585.4z"/>
	<path class="st4" d="M454.5,493.6c5.6,4.5,7.9,10.7,7.9,17.5c0.2,24.3,0.1,48.6,0,72.8c0,0.5-0.2,1-0.3,1.5c-10.2,0-20.3,0-30.5,0
		c-0.1-0.8-0.3-1.6-0.3-2.5c0-22.7,0-45.5,0-68.2c0-3.7,1.1-7.2,2.3-10.6C437.6,494.1,444.3,490.8,454.5,493.6z"/>
	<path class="st4" d="M410.6,492.4c3.1,4.6,4.6,9.8,4.7,15.1c0.5,26,0.7,51.9,0,77.9c-5.5,0-11,0-16.4-0.1
		c-0.1-24.7-0.3-49.5-0.1-74.2c0-4.7,1.4-9.5,3.9-13.7C404.4,494.5,406.6,491.9,410.6,492.4z"/>
	<path class="st4" d="M581.8,585.4c-0.1-18.3-0.3-36.5-0.2-54.8c0-8.4-0.7-16.9,0.8-25.4c0.8-4.5,2.2-8.7,4.1-12.7
		c3.9-0.5,6.3,1.4,7.9,4.7c2.6,5.1,4.1,10.5,4.1,16.3c0,15.5,0.1,31,0,46.5c0,8.5-0.2,17-0.3,25.4
		C592.7,585.4,587.3,585.4,581.8,585.4z"/>
	<path class="st5" d="M598.2,585.4c0.1-8.5,0.3-17,0.3-25.4c0-15.5,0-31,0-46.5c0-5.8-1.5-11.1-4.1-16.3c-1.7-3.3-4.1-5.2-7.9-4.7
		c2.1-2.8,4.3-5.9,8.4-4.8c4,1.1,6,4.9,7.3,8.2c2.4,5.8,3.1,12.2,3.2,18.5c0.1,21.8,0.1,43.6,0.1,65.3c0,2,0.1,4-1,5.8
		C602.4,585.5,600.3,585.4,598.2,585.4z"/>
	<path class="st5" d="M369.6,585.5c0-26.2-0.1-52.5,0-78.7c0-4.7,1.2-9.2,2.7-13.5c0.8-2.4,1.7-5.8,5-5.4c3.2,0.4,4,3.5,4.3,6.5
		c-4.3,4.8-4.6,11.1-4.7,16.8c-0.4,24.7-0.1,49.4,0,74.1C374.5,585.3,372,585.4,369.6,585.5z"/>
	<path class="st5" d="M616.5,494.3c0-1,0-2,0-3c0.2-2.3,2-2.9,3.8-3.5c2-0.6,2.7,1.2,3.3,2.4c2.2,4.7,3.9,9.5,3.9,14.8
		c0,26.8,0,53.6,0,80.5c-2.4-0.1-4.8-0.1-7.2-0.2c0.1-23.9,0.2-47.8,0.2-71.7C620.4,507,619.3,500.5,616.5,494.3z"/>
	<path class="st4" d="M376.9,585.2c-0.1-24.7-0.4-49.4,0-74.1c0.1-5.7,0.4-12,4.7-16.8c2.1,4.3,2.6,9.1,2.6,13.6
		c0.2,25.8,0,51.6-0.1,77.4C381.7,585.3,379.3,585.3,376.9,585.2z"/>
	<path class="st4" d="M616.5,494.3c2.9,6.1,3.9,12.6,3.9,19.3c0,23.9-0.1,47.8-0.2,71.7c-2.4,0-4.9,0-7.3,0
		c-0.1-27.6-1.1-55.2,0.8-82.8C613.9,499.7,613.7,496.4,616.5,494.3z"/>
	<path class="st5" d="M410.6,492.4c-4-0.5-6.1,2.1-7.9,5c-2.5,4.2-3.9,9-3.9,13.7c-0.2,24.7,0,49.5,0.1,74.2
		c-2.1,0.1-4.2,0.1-6.2,0.2c0-26.3-0.1-52.6,0-78.9c0-6.1,2.5-11.7,6.3-16.5C402.2,485.9,406.7,487,410.6,492.4z"/>
	<path class="st5" d="M566.1,585.3c0.1-23.2,0.3-46.5,0.1-69.7c0-4.5-1.2-9.2-3.4-13.4c-5-9.3-10.3-11.6-20.3-8.6
		c2.9-6.9,12.4-8.3,18.8-2.7c6.6,5.7,9,13.5,9.1,21.8c0.2,24.2,0,48.5,0,72.8C569,585.4,567.5,585.4,566.1,585.3z"/>
	<path class="st5" d="M454.5,493.6c-10.3-2.8-16.9,0.5-20.7,10.5c-1.3,3.4-2.3,6.9-2.3,10.6c0,22.7,0,45.5,0,68.2
		c0,0.8,0.2,1.6,0.3,2.5c-1.4,0-2.8,0.1-4.2,0.1c0-25.3-0.3-50.6,0.1-75.9c0.1-9.3,4.3-17,13.2-21.2
		C446.2,486,452.1,488.4,454.5,493.6z"/>
	<path class="st5" d="M504.5,329.6c-4,0-8,0-11.9,0c0-13,0-26-0.1-39c0-2.1,0.4-4,1.1-5.8c0.9-2.3,1.8-5,4.8-5.1
		c3.1,0,4.5,2.4,5.4,5c0.6,1.6,0.8,3.2,0.8,4.9C504.5,303,504.5,316.3,504.5,329.6z"/>
	<path class="st5" d="M489.5,329.6c-1.4,0-2.7,0-4.1,0c-0.1-15.6-0.1-31.1-0.2-46.7c0.4-1-0.2-2.6,1.4-2.8c1.5-0.2,1.7,1.3,2.1,2.3
		c0.7,1.7,0.9,3.5,0.9,5.3C489.5,301.8,489.5,315.7,489.5,329.6z"/>
	<path class="st5" d="M511.6,329.6c-1.4,0-2.7,0-4.1,0c0-13.6-0.1-27.2,0-40.8c0-2.1,0.6-4.2,1-6.3c0.2-1.2,0.5-2.5,1.9-2.4
		c1.6,0.2,0.9,1.8,1.4,2.8C511.7,298.5,511.7,314.1,511.6,329.6z"/>
</g>
</svg>
