<?xml version="1.0" encoding="utf-8"?>
<!-- Generator: Adobe Illustrator 23.1.0, SVG Export Plug-In . SVG Version: 6.00 Build 0)  -->
<svg version="1.1" id="Layer_1" xmlns="http://www.w3.org/2000/svg" xmlns:xlink="http://www.w3.org/1999/xlink" x="0px" y="0px"
	 viewBox="0 0 500 500.4" style="enable-background:new 0 0 500 500.4;" xml:space="preserve">
<style type="text/css">
	.st0{fill:#6CBCC4;}
	.st1{fill:#3D6A71;}
</style>
<g>
	<path class="st0" d="M0,250.1C-1.9,112.7,113.5-0.7,250.9,0c135.6,0.7,250.4,112.2,249,252.5c-1.3,135.3-111.3,248.9-252.7,247.9
		C110.4,499.3-1.8,385.8,0,250.1z M249.9,190.5c11.2,0.9,21,2.5,29.7-4.7c4.7-3.9,24.6-2.8,27.4,1.1c3.4,4.8,7.7,6.5,13.2,6
		c4-0.4,6.7,1.5,9.5,4.2c12.9,12.7,25.9,25.4,39.1,37.8c7.8,7.3,8.5,15.2,0.9,22.8c-13.4,13.5-26.9,27-40.4,40.4
		c-2.3,2.3-4.5,4.9-8.4,4.4c-5.8-0.7-10.7,0.9-13.9,6.3c-1.6,2.8-4.5,2.6-7.3,2.6c-7.9,0-15.7,0.1-23.6,0c-2.3,0-5.8,0.9-6.1-2.2
		c-1-11.1-6.2-4.4-9.7-2.3c-3.7,2.3-10.2,3.1-10.1,7.9c0.1,5.4,7.2,5.3,10.9,8.2c1.9,1.5,6.2,4.2,7,1.9c4-11.4,13.2-5.9,20-6.5
		c8.5-0.8,16.7-1.1,24.1,6.4c6.4,6.4,17.1,0.3,16.9-9.1c-0.2-6.5,2.3-10.3,6.8-14.6c12.5-11.8,24.5-24.1,36.4-36.5
		c3.7-3.9,7-6.6,13-6.3c8.5,0.4,13.2-5,12.8-12.9c-0.4-6.7-6.2-12-13.8-10.9c-4.4,0.6-6.7-0.9-9.4-3.5c-13-12.5-26-25.1-39.2-37.4
		c-4.2-3.9-7.3-7.7-6.4-14c0.7-4.7-2-7.9-6.2-10.1c-4.4-2.2-8.5-1.6-11.9,1.4c-11.4,10.1-23.7,8.2-35.6,2
		c-8.3-4.3-16.4-3.5-27.3-2.5C259.7,177.3,259.5,183.7,249.9,190.5z M164,225.8c17.9,0,35.7,0,53.6,0c3.8,0,7.6-0.3,9.1-4.4
		c2.6-7-6.3-19-13.9-19c-17.2-0.1-34.5,0-51.7,0c-15.1,0-30.3-0.1-45.4,0c-7.9,0-14.9,8-14.2,17.2c0.6,8.2,7.7,6.1,12.7,6.2
		C130.7,225.9,147.4,225.8,164,225.8z M163.8,364.2c18.1,0,36.3-0.1,54.4,0c4.8,0,8.2-0.7,7.9-6.9c-0.6-10.2-5.4-15.4-15.5-15.4
		c-24.2,0-48.4,0-72.6,0c-8.5,0-16.9-0.2-25.4,0.1c-5.8,0.2-11.1,9-10.7,16.5c0.4,7.5,6.1,5.4,10.1,5.5
		C129.3,364.3,146.6,364.2,163.8,364.2z M163.2,336.6c14.2,0,28.5-0.2,42.7,0.1c6.5,0.1,9.3-2.2,9.2-9c-0.3-14.5-0.2-29.1,0-43.6
		c0.1-6.5-2.1-9.3-8.9-9.3c-28.2,0.2-56.3,0.2-84.5,0c-6.9-0.1-8.9,3.1-8.8,9.5c0.3,14.2,0.4,28.5,0,42.7c-0.2,7.8,3,10,10.3,9.8
		C136.5,336.3,149.8,336.6,163.2,336.6z M162.1,197C162.1,197,162.1,197,162.1,197c13.3,0,26.6-0.3,39.9,0.2
		c7.1,0.2,11.4-1.3,12.2-9.3c1.5-15.7,0.5-31.3,0.6-47c0-4.8-3.7-5.5-7.7-5.5c-28.4,0-56.8,0.1-85.2,0c-6.6,0-9,3.1-8.9,9.6
		c0.3,14.5,0.3,29,0,43.5c-0.1,6.8,2.7,8.9,9.3,8.7C135.5,196.7,148.8,197,162.1,197z M376.3,191.1c6.3-0.2,10.9-7.6,15.5-0.2
		c0.6,1,3.1-1.2,2.3-2.5c-2.8-5.3-1.3-10-0.9-15.6c0.7-8.5-8.2,7.9-10.6-1.8c-0.3-1.1-2.1-1-3.2-0.2c-1.2,0.9-1.1,2.5-0.4,3.2
		C385,180,379.7,184.8,376.3,191.1z M327.2,235.4c-5.8,0.5-10.6,7.1-15.2,0.3c-0.5-0.7-2.9,1.5-2,2.9c3.6,5,5,9.7-0.1,14.6
		c-0.4,0.3-0.1,1.8,0.3,2.4c0.8,1.1,2.6,1.2,3.1,0.3c3.4-5.9,6.2-2.6,9.3,0.2c0.6,0.5,2.3,0,3.3-0.4c0.3-0.1,0.5-1.9,0.2-2.2
		C319.8,247.8,323.5,242,327.2,235.4z M394,307.1c-0.3-0.8-0.4-2.2-0.8-2.3c-1.1-0.2-3-0.3-3.3,0.3c-3.8,7.7-7.5-2.8-10.1-0.2
		c-4,3.9,5.3,7.3,1.4,11.9c-1,1.1-1.8,2.4-2.5,3.7c-0.6,1.2-2,2.7-0.8,4c1.6,1.7,3.5,0.6,4.7-0.7c2.9-3.4,5.1-3.5,7.5,0.5
		c0.4,0.6,2.3,0.9,3.2,0.6c1.2-0.4,1.6-2.1,0.8-3.1C390,316.9,389.9,312.1,394,307.1z"/>
	<path class="st1" d="M249.9,190.5c9.6-6.8,9.8-13.2-1.6-20.1c11-1.1,19-1.8,27.3,2.5c11.9,6.2,24.2,8.1,35.6-2
		c3.3-2.9,7.5-3.6,11.9-1.4c4.2,2.2,6.9,5.4,6.2,10.1c-0.9,6.3,2.2,10.1,6.4,14c13.2,12.3,26.2,24.9,39.2,37.4
		c2.7,2.6,5.1,4.1,9.4,3.5c7.6-1.1,13.4,4.2,13.8,10.9c0.4,7.9-4.3,13.3-12.8,12.9c-6-0.3-9.3,2.4-13,6.3
		c-11.9,12.4-23.9,24.7-36.4,36.5c-4.5,4.2-7,8.1-6.8,14.6c0.3,9.4-10.5,15.5-16.9,9.1c-7.4-7.5-15.6-7.1-24.1-6.4
		c-6.9,0.6-16-4.8-20,6.5c-0.8,2.3-5.1-0.4-7-1.9c-3.7-2.9-10.9-2.8-10.9-8.2c-0.1-4.8,6.4-5.7,10.1-7.9c3.5-2.1,8.7-8.8,9.7,2.3
		c0.3,3.1,3.9,2.2,6.1,2.2c7.9,0.1,15.7,0,23.6,0c2.8,0,5.7,0.2,7.3-2.6c3.2-5.4,8.1-7,13.9-6.3c3.9,0.5,6.1-2.1,8.4-4.4
		c13.5-13.5,27-26.9,40.4-40.4c7.6-7.6,7-15.5-0.9-22.8c-13.2-12.4-26.2-25.1-39.1-37.8c-2.8-2.7-5.5-4.6-9.5-4.2
		c-5.5,0.5-9.8-1.2-13.2-6c-2.8-3.9-22.7-5-27.4-1.1C270.9,193,261.1,191.5,249.9,190.5z"/>
	<path class="st1" d="M164,225.8c-16.6,0-33.3,0.1-49.9-0.1c-5.1-0.1-12.1,2-12.7-6.2c-0.7-9.2,6.3-17.1,14.2-17.2
		c15.1-0.1,30.3,0,45.4,0c17.2,0,34.5,0,51.7,0c7.7,0,16.5,12.1,13.9,19c-1.5,4.1-5.3,4.4-9.1,4.4
		C199.7,225.8,181.8,225.8,164,225.8z"/>
	<path class="st1" d="M163.8,364.2c-17.2,0-34.5,0.1-51.7-0.1c-4,0-9.7,2-10.1-5.5c-0.4-7.6,4.9-16.3,10.7-16.5
		c8.5-0.3,16.9-0.1,25.4-0.1c24.2,0,48.4,0,72.6,0c10,0,14.9,5.2,15.5,15.4c0.3,6.2-3,6.9-7.9,6.9
		C200.1,364.1,181.9,364.2,163.8,364.2z"/>
	<path class="st1" d="M163.2,336.6c-13.3,0-26.6-0.3-40,0.1c-7.3,0.2-10.5-2-10.3-9.8c0.4-14.2,0.3-28.5,0-42.7
		c-0.1-6.4,1.9-9.5,8.8-9.5c28.2,0.2,56.3,0.2,84.5,0c6.8-0.1,9,2.8,8.9,9.3c-0.3,14.5-0.3,29.1,0,43.6c0.1,6.7-2.7,9.1-9.2,9
		C191.6,336.4,177.4,336.6,163.2,336.6z M164,283.9C164,283.9,164,283.9,164,283.9c-11.8,0-23.6,0.1-35.3,0
		c-4.3-0.1-6.8,0.9-6.6,5.9c0.3,10.6,0.3,21.2,0,31.7c-0.1,4.9,2.1,6.1,6.6,6.1c23.6-0.1,47.1-0.2,70.7,0c5.2,0,6.9-2,6.8-6.9
		c-0.2-10-0.3-19.9,0-29.9c0.2-5.8-2.4-7.1-7.6-7C187,284.1,175.5,283.9,164,283.9z"/>
	<path class="st1" d="M162.1,197c-13.3,0-26.6-0.2-39.9,0.1c-6.5,0.2-9.4-1.9-9.3-8.7c0.3-14.5,0.2-29,0-43.5
		c-0.1-6.4,2.2-9.6,8.9-9.6c28.4,0.1,56.8,0,85.2,0c4,0,7.7,0.7,7.7,5.5c0,15.7,1,31.3-0.6,47c-0.8,8-5,9.6-12.2,9.3
		C188.7,196.7,175.4,197,162.1,197C162.1,197,162.1,197,162.1,197z M163.1,188c11.8,0,23.6-0.3,35.3,0.1c6.1,0.2,7.9-2.1,7.7-7.9
		c-0.4-8.4-0.6-16.9,0.1-25.3c0.7-8.3-3.2-10.6-10.5-10.6c-22.3,0.1-44.7,0.2-67-0.1c-5.3-0.1-6.8,2-6.6,6.9c0.3,10,0.3,19.9,0,29.9
		c-0.2,5.8,2.3,7.2,7.6,7.1C140.7,187.8,151.9,188,163.1,188z"/>
	<path class="st1" d="M376.3,191.1c3.5-6.3,8.7-11.1,2.9-17.2c-0.7-0.8-0.8-2.3,0.4-3.2c1.1-0.8,2.9-0.9,3.2,0.2
		c2.4,9.7,11.3-6.7,10.6,1.8c-0.5,5.6-1.9,10.3,0.9,15.6c0.7,1.4-1.7,3.5-2.3,2.5C387.2,183.5,382.5,190.9,376.3,191.1z"/>
	<path class="st1" d="M327.2,235.4c-3.7,6.5-7.4,12.3-1.1,18.2c0.4,0.3,0.2,2.1-0.2,2.2c-1,0.4-2.7,0.9-3.3,0.4
		c-3.1-2.8-5.9-6.2-9.3-0.2c-0.5,0.9-2.3,0.8-3.1-0.3c-0.4-0.6-0.7-2.1-0.3-2.4c5.1-4.9,3.7-9.6,0.1-14.6c-1-1.4,1.5-3.6,2-2.9
		C316.7,242.6,321.4,235.9,327.2,235.4z"/>
	<path class="st1" d="M394,307.1c-4.1,5-3.9,9.9,0,14.7c0.8,1,0.4,2.6-0.8,3.1c-0.9,0.3-2.8,0-3.2-0.6c-2.4-4-4.6-3.9-7.5-0.5
		c-1.1,1.3-3,2.5-4.7,0.7c-1.3-1.3,0.1-2.8,0.8-4c0.7-1.3,1.5-2.6,2.5-3.7c3.9-4.6-5.4-8-1.4-11.9c2.6-2.6,6.3,7.9,10.1,0.2
		c0.3-0.5,2.2-0.5,3.3-0.3C393.6,304.9,393.7,306.2,394,307.1z"/>
	<path class="st0" d="M164,283.9c11.5,0,23,0.2,34.4-0.1c5.3-0.1,7.8,1.2,7.6,7c-0.3,10-0.2,19.9,0,29.9c0.1,4.9-1.5,7-6.8,6.9
		c-23.6-0.2-47.1-0.1-70.7,0c-4.4,0-6.7-1.2-6.6-6.1c0.2-10.6,0.3-21.2,0-31.7c-0.1-5.1,2.3-6,6.6-5.9
		C140.4,284,152.2,283.9,164,283.9C164,283.9,164,283.9,164,283.9z"/>
	<path class="st0" d="M163.1,188c-11.2,0-22.3-0.2-33.5,0.1c-5.3,0.1-7.8-1.3-7.6-7.1c0.3-10,0.3-19.9,0-29.9c-0.1-5,1.4-7,6.6-6.9
		c22.3,0.2,44.7,0.2,67,0.1c7.3,0,11.1,2.3,10.5,10.6c-0.7,8.4-0.4,16.9-0.1,25.3c0.2,5.8-1.6,8.1-7.7,7.9
		C186.6,187.7,174.8,188,163.1,188z"/>
</g>
</svg>
