<?xml version="1.0" encoding="utf-8"?>
<!-- Generator: Adobe Illustrator 23.1.0, SVG Export Plug-In . SVG Version: 6.00 Build 0)  -->
<svg version="1.1" id="Layer_1" xmlns="http://www.w3.org/2000/svg" xmlns:xlink="http://www.w3.org/1999/xlink" x="0px" y="0px"
	 viewBox="0 0 791 790.9" style="enable-background:new 0 0 791 790.9;" xml:space="preserve">
<style type="text/css">
	.st0{fill:#8921B4;}
	.st1{fill-rule:evenodd;clip-rule:evenodd;fill:#FDFDFD;}
</style>
<g>
	<g>
		<path class="st0" d="M791,395.5c0,218.5-177,395.5-395.5,395.5C177.1,790.9,0,613.9,0,395.5C0,177.1,177.1,0,395.5,0
			C614,0,791,177.1,791,395.5z"/>
	</g>
	<g>
		<path class="st1" d="M633.3,268.6c0-1.8-0.4-2.3-2.2-2.2c-10.5,0.2-21,0.2-31.6,0.4c-49.3,0.7-98.6,1.4-147.8,2.1
			c-10.2,0.1-20.4,0.4-30.6,0.6c-1.6,0.1-2,0.5-2,2.1c0.1,9.7,0.1,19.5,0,29.2c0,1.3,0.2,1.9,1.7,2c6.2,0.2,12.5,0.7,18.7,0.9
			c18.8,0.7,37.5,1.3,56.3,2c0.8,0,1.6,0.1,2.8,0.2c-1.5,1.3-2.6,2.2-3.7,3.2c-32.4,27.6-64.8,55.3-97.2,83c-2.8,2.3-2.8,2.3-5-0.5
			c-28-34.7-56.1-69.3-84.1-104c-6.6-8-13-16.1-19.8-24.3c0.7-0.1,1-0.3,1.3-0.3c10.6-0.9,21.3-2,32-2.8c11.5-0.9,23.1-1.7,34.6-2.5
			c1.6-0.1,2.2-0.5,2.2-2.2c0.6-9.9,1.4-19.8,2.8-29.6c0.3-1.9,0-2.3-1.9-2.3c-83.8,0.1-167.7,0.1-251.5,0c-1.7,0-2.3,0.4-2.3,2.2
			c0.1,9.5,0,19,0,28.6c0,3.1,0,3.1,3.2,3.3c23.5,1.7,47.2,3.4,71,5.2c1.6,0.1,2.7,0.6,3.8,1.9c20.5,25,41,50,61.6,75
			c27.1,33,54.2,65.8,81.3,98.7c0.8,1.1,1.3,2.2,1.3,3.7c-0.1,10.9,0,21.7,0,32.5c0,18.1,0,36.3,0,54.4c0,1.1,0.1,2.2-1.7,2.3
			c-11.8,0.9-23.7,1.8-35.4,2.7c-14.3,1.1-28.5,2.2-42.7,3.3c-1.8,0.1-2.4,0.7-2.4,2.5c0.1,8.3,0.1,16.4,0.1,24.5
			c0,3.3-0.4,2.9,2.8,2.9c82.4,0,164.7,0,247.1,0c0.4,0,0.8-0.1,1.1,0.1c1.3,0.1,1.9-0.3,1.9-1.8c-0.1-8.8-0.1-17.5,0-26.3
			c0-1.3-0.5-1.7-1.7-1.7c-3.8-0.2-7.6-0.5-11.3-0.7c-22.3-1.1-44.4-1.9-66.6-2.3c-2.3-0.1-2.6-0.7-2.5-2.8
			c0.8-31,1.6-62.1,2.3-93.1c0-1.3,0.5-2.1,1.4-2.9c10.9-9.6,21.8-19.3,32.6-28.9c35.1-31.4,70.2-62.7,105.4-94.1
			c1.1-1,2.2-1.4,3.6-1.6c5-0.2,10.1-0.6,15.1-1c18-1.3,36-2.6,54-4.2c1.7-0.2,2.1-0.7,2.1-2.3C633.2,292,633.2,280.3,633.3,268.6z"
			/>
		<g>
			<path class="st1" d="M685.1,344.8c-0.7,2-1,4.1-1.5,6.1c-5.3,21.7-10.6,43.5-15.7,65.3c-5.9,24.5-11.8,48.9-17.6,73.3
				c-0.1,0.6-0.4,0.7-0.8,0.7c-8.7-0.9-17.4-1.9-26.1-2.8c-0.6,0-1.2-0.1-1.8-0.1c-0.5,0-0.7-0.2-0.7-0.7c0.1-3,0.2-6.1,0.2-9.2
				c0.1-2.9,0.1-5.6,0.2-8.5c0.2-8.3,0.4-16.7,0.5-25.1c0.2-9.1,0.4-18.3,0.5-27.4c0.2-9.1,0.4-18.2,0.7-27.4
				c0.2-9.1,0.2-18.3,0.5-27.4c0.2-6.5,0.4-12.9,0.5-19.4c0-0.7,0.1-0.8,0.7-0.8c5.3,0.3,10.7,0.5,16,0.8c3.3,0.2,6.6,0.3,9.9,0.5
				c6.2,0.3,12.6,0.6,18.8,1c4.2,0.2,8.4,0.4,12.6,0.6c1,0,2,0,3.1,0.1C685.1,344.6,685.1,344.7,685.1,344.8z"/>
			<path class="st1" d="M635.6,539.7c-5.5,0-11-0.1-16.6,0c-0.7,0-1-0.2-1-0.9c-0.4-5.3-1-10.5-1.5-15.7c-0.5-5.1-0.9-10.1-1.4-15.1
				c0-0.5,0.2-0.5,0.6-0.5c2.9,0.2,5.6,0.4,8.5,0.7c3.9,0.3,7.8,0.6,11.7,0.9c4.5,0.4,9.1,0.7,13.6,1.1c1,0.1,1.9,0.2,2.9,0.2
				c0.6,0,0.7,0.2,0.7,0.7c0,9.3,0,18.6,0,27.8c0,0.7-0.3,0.8-0.8,0.8C646.8,539.7,641.1,539.7,635.6,539.7z"/>
		</g>
	</g>
</g>
</svg>
