<?xml version="1.0" encoding="utf-8"?>
<!-- Generator: Adobe Illustrator 23.1.0, SVG Export Plug-In . SVG Version: 6.00 Build 0)  -->
<svg version="1.1" id="Layer_1" xmlns="http://www.w3.org/2000/svg" xmlns:xlink="http://www.w3.org/1999/xlink" x="0px" y="0px"
	 viewBox="0 0 250 250" style="enable-background:new 0 0 250 250;" xml:space="preserve">
<style type="text/css">
	.st0{fill:#F2F2F2;}
	.st1{font-family:'Abel-Regular';}
	.st2{font-size:70px;}
	.st3{letter-spacing:14;}
</style>
<text transform="matrix(1 0 0 1 64.89 86.54)" class="st0 st1 st2 st3">H</text>
<text transform="matrix(1 0 0 1 112.85 148.43)" class="st0 st1 st2 st3">o</text>
<text transform="matrix(1 0 0 1 144.25 225.1)" class="st0 st1 st2 st3">W</text>
<g>
	<g>
		<path class="st0" d="M208.4,164.1c-10.6,0-20.9,0-31.4,0c-0.5,1.8-1.1,3.5-1.5,5.3c-0.2,1-0.7,1.3-1.7,1.3c-2.4-0.1-4.8,0-7.2,0
			c-0.9,0-1.2,0.3-1.5,1.1c-1.7,6.7-3.4,13.3-5,19.9c-0.1,0.3-0.2,0.6-0.3,1.2c-0.8-3.1-1.6-5.9-2.2-8.7c-0.1-0.5,0.2-1.1,0.4-1.6
			c2.7-5.6,4.9-11.4,6.6-17.4c0.1-0.3,0.1-0.6,0.2-1c-10,0-19.9,0-29.8,0c0,15.6,0,31.1,0,46.9c4.5-3.1,8.2-6.9,11.9-11
			c2.2,8.1,4.3,16,6.4,23.9c-33.9,9.4-84.4-1.1-110.3-48.3C19.2,132.6,32.5,81.6,65.4,54.6c0,0.5,0.1,0.8,0.1,1.2
			c0,4.4,0,8.7,0,13.1c0,1.1-0.4,1.9-1.1,2.7C58.6,78,53.9,85.1,50.3,93c-0.1,0.3-0.2,0.6-0.4,1c0.5,0,0.8,0,1.2,0
			c9.7,0,19.4,0,29.2,0c0.9,0,1.2-0.2,1.4-1.1c1.6-6.2,3.6-12.2,6.2-18.1c0.2-0.4,0.3-0.7,0.7-1.1c0,5.9,0,11.7,0,17.7
			c1.8,0,3.5,0,5.4,0c-0.2,0.9-0.4,1.7-0.6,2.5c10,0,19.9,0,29.8,0c0-15.6,0-31.1,0-46.9c-4.2,3-7.9,6.3-11.1,10.2
			c-3.1,3.9-6,7.9-8.9,11.8c0-0.1,0-0.5,0-0.8c0-5.7,0-11.4,0-17.1c0-0.7,0.4-1.5,0.8-2.1c1-1.2,2.1-2.4,3.1-3.8
			c-1.3,0.3-2.5,0.7-4,1.1c0-0.8,0-1.6,0-2.3c0-2.8,0-5.6,0-8.4c0-0.9,0.2-1.3,1.2-1.6c11.1-2.8,22.4-3.8,33.8-2.7
			c20.7,1.9,39.1,9.6,54.9,23.1c17.1,14.7,28.2,33,32.4,55.2c5.3,27.6-0.1,53.1-16.2,76.2c-4.2,6.1-9.2,11.5-14.7,16.4
			c-0.2,0.2-0.4,0.3-0.8,0.7c0.9-3.6,1.8-6.9,2.7-10.3c1.1-4.1,2.2-8.2,3.3-12.4c0.2-0.8,0.6-1.5,1-2.3c2.4-4.2,4.8-8.5,7.2-12.7
			C208.1,165,208.2,164.6,208.4,164.1z M111.1,152.2c2.7,0,5.3,0,7.9,0c0.7,0,1.5,0.2,2.2,0.5c5,1.8,10,1.8,15,0.1
			c0.9-0.3,1.9-0.6,2.9-0.6c9,0,17.9,0,26.9,0c0.5,0,0.9,0,1.5,0c1.9-10.7,2.4-21.3,1.8-31.9c-0.2-0.1-0.3-0.1-0.4-0.2
			c-8.1-1.4-13.7-6-16.6-13.7c-0.3-0.8-0.6-0.9-1.4-0.9c-4.9,0-9.8,0-14.8,0c-0.3,0-0.7,0.1-1.1,0.1c0,0.9,0,1.7,0,2.5
			c-3.9-1-7.6-0.8-11.5-0.2c-0.1-0.8-0.1-1.6-0.1-2.3c-10.9,0-21.6,0-32.3,0c-1.4,5.7-2.7,23.3-1.9,27.2
			C99.2,134,108,141.1,111.1,152.2z M179.5,152.1c0.3,0,0.5,0.1,0.8,0.1c10.4,0,20.9,0,31.3,0c0.9,0,1.1-0.4,1.3-1.1
			c3.9-14.8,3.9-29.7,0-44.5c-0.2-0.8-0.5-1.2-1.4-1.1c-6.2,0-12.5,0-18.7,0c-0.8,0-1.1,0.3-1.4,1c-1.8,5-5,8.8-9.6,11.3
			c-0.7,0.4-0.8,0.8-0.8,1.5c0.5,7.7,0.4,15.3-0.3,23C180.2,145.6,179.8,148.8,179.5,152.1z M79,105.6c-0.4,0-0.6-0.1-0.9-0.1
			c-10.4,0-20.9,0-31.3,0c-0.7,0-1,0.2-1.2,1c-1.3,5.1-2.2,10.2-2.6,15.4c-0.8,9.9,0.1,19.7,2.6,29.3c0.2,0.9,0.6,1,1.4,1
			c4.3,0,8.6,0,13,0c0.9,0,1.3-0.3,1.5-1.2c2.4-7.7,7.3-13.2,14.7-16.4c0.4-0.2,0.8-0.4,1.1-0.5C76.9,124.5,77.5,115.1,79,105.6z
			 M151.1,45.5c0.7,0.7,1.4,1.5,2.1,2.3c8.2,8.9,14.2,19.2,18.6,30.4c0.3,0.8,0.7,1.1,1.5,1.1c5.4,0.4,9.9,2.6,13.6,6.5
			c2.2,2.4,3.7,5.1,4.7,8.2c5.6,0,11.1,0,16.8,0c-4.9-11.1-11.8-20.6-20.7-28.7C177.2,55.6,165,48.9,151.1,45.5z M151.8,94
			c1.6-5.1,4.6-9,9-11.8c-3-11.1-18.1-31.6-25.8-35c0,15.6,0,31.2,0,46.8C140.6,94,146.1,94,151.8,94z M49.9,164.1
			C55.3,176.3,63,186.5,73,195c10,8.5,21.3,14.5,34.2,17.9c-0.2-0.3-0.2-0.4-0.3-0.5c-7.8-7.9-13.7-17.1-18.2-27.2
			c-0.3-0.6-0.6-0.9-1.3-0.8c-6.4,0.3-12.2-1.6-17.3-5.6c-4.4-3.6-7.4-8.1-8.9-13.6c-0.1-0.4-0.5-1-0.8-1
			C56.9,164.1,53.5,164.1,49.9,164.1z M123.2,164.2c-0.3,0-0.5-0.1-0.7-0.1c-3.5,0-7,0-10.6,0c-0.7,0-0.9,0.3-1.1,0.9
			c-1,3.9-2.7,7.4-5.4,10.4c-1.8,2-4,3.7-6.1,5.6c5.3,11.8,12.8,22.2,23.8,30.2C123.2,195.5,123.2,179.9,123.2,164.2z M86,172.7
			c7.8,0,14.2-6.3,14.2-14c0-7.8-6.3-14.3-14.1-14.3c-7.8,0-14.3,6.4-14.2,14.2C71.9,166.3,78.2,172.6,86,172.7z M171.7,108.9
			c5,0,9.1-4,9.2-9c0-5.1-4-9.2-9.1-9.2c-5,0-9.1,4-9.1,9C162.7,104.8,166.7,108.9,171.7,108.9z"/>
		<path class="st0" d="M88.6,39.5c0,4.4,0,8.4,0,12.3c0,0.3-0.2,0.7-0.5,0.9c-2.7,1.9-4.6,2.3-8.1,1.9c0-1.7,0-3.4,0-5.1
			c0-1.6,0-3.1,0-4.7c0-0.3,0.2-0.8,0.4-1C83,42.4,85.7,41,88.6,39.5z"/>
		<path class="st0" d="M167.6,219.3c1-3.9,1.9-7.5,3-11.5c0.3,0.9,0.4,1.4,0.6,2c0.5,2,1,4,1.6,6c0.2,0.7,0.1,1.2-0.7,1.5
			C170.7,217.9,169.3,218.6,167.6,219.3z"/>
		<path class="st0" d="M131.1,130.8c0,2.5,0,4.9,0,7.4c0,1.4-0.2,1.6-1.6,1.6c-3.1,0-3.3,0.6-3.3-3.2c0-4.3,0-8.7,0-13
			c0-1.7,0.3-2,1.9-2c2.9,0,2.9,0,2.9,2.9C131.1,126.6,131.1,128.7,131.1,130.8z"/>
	</g>
</g>
</svg>
